<mxfile host="Electron" agent="Mozilla/5.0 (Windows NT 10.0; Win64; x64) AppleWebKit/537.36 (KHTML, like Gecko) draw.io/28.1.2 Chrome/138.0.7204.243 Electron/37.4.0 Safari/537.36" version="28.1.2" pages="2">
  <diagram name="Page-1" id="v53bKYuC7yBzTNyNIc8t">
    <mxGraphModel dx="2633" dy="1201" grid="1" gridSize="10" guides="1" tooltips="1" connect="1" arrows="1" fold="1" page="1" pageScale="1" pageWidth="850" pageHeight="1100" math="0" shadow="0">
      <root>
        <mxCell id="0" />
        <mxCell id="1" parent="0" />
        <mxCell id="HIbShT7YJVeBAYEJPjFj-2" value="" style="rounded=1;whiteSpace=wrap;html=1;fillColor=#d5e8d4;strokeColor=#82b366;" parent="1" vertex="1">
          <mxGeometry x="-614" y="147" width="376" height="244" as="geometry" />
        </mxCell>
        <mxCell id="HIbShT7YJVeBAYEJPjFj-23" value="&lt;font style=&quot;font-size: 18px;&quot;&gt;&lt;b style=&quot;&quot;&gt;1. Graph Construction&lt;/b&gt;&lt;/font&gt;" style="rounded=1;whiteSpace=wrap;html=1;fillColor=#ffe6cc;strokeColor=#d79b00;strokeWidth=2;" parent="1" vertex="1">
          <mxGeometry x="-596" y="198" width="340" height="50" as="geometry" />
        </mxCell>
        <mxCell id="HIbShT7YJVeBAYEJPjFj-3" value="&lt;b&gt;&lt;font style=&quot;font-size: 20px;&quot;&gt;Pre-processing Stage&lt;/font&gt;&lt;/b&gt;" style="rounded=1;whiteSpace=wrap;html=1;fillColor=#f5f5f5;strokeColor=#666666;fontColor=#333333;strokeWidth=2;" parent="1" vertex="1">
          <mxGeometry x="-614" y="147" width="376" height="40" as="geometry" />
        </mxCell>
        <mxCell id="OQKY13Mx9PFGy3kPkDWF-4" value="&lt;font style=&quot;font-size: 18px;&quot;&gt;&lt;b style=&quot;&quot;&gt;2. Article Embeddings&lt;/b&gt;&lt;/font&gt;" style="rounded=1;whiteSpace=wrap;html=1;fillColor=#ffe6cc;strokeColor=#d79b00;strokeWidth=2;" parent="1" vertex="1">
          <mxGeometry x="-596" y="258" width="340" height="50" as="geometry" />
        </mxCell>
        <mxCell id="HIbShT7YJVeBAYEJPjFj-12" value="" style="rounded=1;whiteSpace=wrap;html=1;fillColor=#d5e8d4;strokeColor=#82b366;container=0;" parent="1" vertex="1">
          <mxGeometry x="-616" y="430" width="380" height="301" as="geometry" />
        </mxCell>
        <mxCell id="HIbShT7YJVeBAYEJPjFj-13" value="&lt;b&gt;&lt;font style=&quot;font-size: 20px;&quot;&gt;In-processing Stage&lt;/font&gt;&lt;/b&gt;" style="rounded=1;whiteSpace=wrap;html=1;fillColor=#f5f5f5;strokeColor=#666666;fontColor=#333333;strokeWidth=2;container=0;" parent="1" vertex="1">
          <mxGeometry x="-616" y="430" width="380" height="40" as="geometry" />
        </mxCell>
        <mxCell id="HIbShT7YJVeBAYEJPjFj-15" value="&lt;b&gt;&lt;font style=&quot;font-size: 18px;&quot;&gt;4. Random Walks&lt;/font&gt;&lt;/b&gt;" style="rounded=1;whiteSpace=wrap;html=1;fillColor=#ffe6cc;strokeColor=#d79b00;strokeWidth=2;container=0;" parent="1" vertex="1">
          <mxGeometry x="-596" y="480" width="340" height="50" as="geometry" />
        </mxCell>
        <mxCell id="HIbShT7YJVeBAYEJPjFj-16" value="&lt;b&gt;&lt;font&gt;&lt;font style=&quot;font-size: 18px;&quot;&gt;5. Filter and Heuristics&lt;/font&gt;&lt;/font&gt;&lt;/b&gt;" style="rounded=1;whiteSpace=wrap;html=1;fillColor=#ffe6cc;strokeColor=#d79b00;strokeWidth=2;container=0;" parent="1" vertex="1">
          <mxGeometry x="-596" y="540" width="340" height="50" as="geometry" />
        </mxCell>
        <mxCell id="OQKY13Mx9PFGy3kPkDWF-5" value="" style="rounded=1;whiteSpace=wrap;html=1;fillColor=#d5e8d4;strokeColor=#82b366;container=0;" parent="1" vertex="1">
          <mxGeometry x="-614" y="771" width="380" height="181.11" as="geometry" />
        </mxCell>
        <mxCell id="OQKY13Mx9PFGy3kPkDWF-6" value="&lt;b&gt;&lt;font style=&quot;font-size: 20px;&quot;&gt;Post-processing Stage&lt;/font&gt;&lt;/b&gt;" style="rounded=1;whiteSpace=wrap;html=1;fillColor=#f5f5f5;strokeColor=#666666;fontColor=#333333;strokeWidth=2;container=0;" parent="1" vertex="1">
          <mxGeometry x="-614" y="771" width="380" height="40" as="geometry" />
        </mxCell>
        <mxCell id="OQKY13Mx9PFGy3kPkDWF-13" value="&lt;b&gt;&lt;font style=&quot;font-size: 18px;&quot;&gt;8. Item Re-ranking&lt;/font&gt;&lt;/b&gt;" style="rounded=1;whiteSpace=wrap;html=1;fillColor=#ffe6cc;strokeColor=#d79b00;strokeWidth=2;container=0;" parent="1" vertex="1">
          <mxGeometry x="-594" y="822.11" width="340" height="50" as="geometry" />
        </mxCell>
        <mxCell id="OQKY13Mx9PFGy3kPkDWF-14" value="&lt;b&gt;&lt;font style=&quot;font-size: 18px;&quot;&gt;9. Graph Coloring&lt;/font&gt;&lt;/b&gt;" style="rounded=1;whiteSpace=wrap;html=1;fillColor=#ffe6cc;strokeColor=#d79b00;strokeWidth=2;container=0;" parent="1" vertex="1">
          <mxGeometry x="-594" y="882.11" width="340" height="50" as="geometry" />
        </mxCell>
        <mxCell id="2hg95qxzbS78gDlhSK9F-1" value="&lt;font style=&quot;font-size: 18px;&quot;&gt;&lt;b style=&quot;&quot;&gt;3. Graph Augmentation&lt;/b&gt;&lt;/font&gt;" style="rounded=1;whiteSpace=wrap;html=1;fillColor=#ffe6cc;strokeColor=#d79b00;strokeWidth=2;" parent="1" vertex="1">
          <mxGeometry x="-596" y="318" width="340" height="50" as="geometry" />
        </mxCell>
        <mxCell id="2hg95qxzbS78gDlhSK9F-2" value="&lt;font style=&quot;font-size: 18px;&quot;&gt;&lt;b style=&quot;&quot;&gt;6. Normative Target Distribution&lt;/b&gt;&lt;/font&gt;" style="rounded=1;whiteSpace=wrap;html=1;fillColor=#ffe6cc;strokeColor=#d79b00;strokeWidth=2;" parent="1" vertex="1">
          <mxGeometry x="-596" y="601" width="340" height="50" as="geometry" />
        </mxCell>
        <mxCell id="GiT1DzT2wJZ3YyEMNI6B-1" value="&lt;font style=&quot;font-size: 18px;&quot;&gt;&lt;b style=&quot;&quot;&gt;7. Article Sampling&lt;/b&gt;&lt;/font&gt;" style="rounded=1;whiteSpace=wrap;html=1;fillColor=#ffe6cc;strokeColor=#d79b00;strokeWidth=2;" vertex="1" parent="1">
          <mxGeometry x="-594" y="661" width="340" height="50" as="geometry" />
        </mxCell>
      </root>
    </mxGraphModel>
  </diagram>
  <diagram id="zF98OjqiQ4ushLN_GH9x" name="Explainability">
    <mxGraphModel dx="1102" dy="642" grid="1" gridSize="10" guides="1" tooltips="1" connect="1" arrows="1" fold="1" page="1" pageScale="1" pageWidth="1100" pageHeight="850" math="0" shadow="0">
      <root>
        <mxCell id="ev6mtNF5K1_pZiudceaX-0" />
        <mxCell id="ev6mtNF5K1_pZiudceaX-1" parent="ev6mtNF5K1_pZiudceaX-0" />
      </root>
    </mxGraphModel>
  </diagram>
</mxfile>
